/* XPM */
static char *_f6a61a14c3b4f13df341c910e9e906ffN9peyrHrdIfIYQR[] = {
/* columns rows colors chars-per-pixel */
"64 64 215 2 ",
"   c #3B0303",
".  c #352C08",
"X  c #252F25",
"o  c #3C2F2F",
"O  c #4A0403",
"+  c #5C0804",
"@  c #551715",
"#  c #680303",
"$  c #730102",
"%  c #7D0001",
"&  c #5A2807",
"*  c #2E490B",
"=  c #007F01",
"-  c #196E14",
";  c #157A18",
":  c #2B650A",
">  c #32620A",
",  c #2A790C",
"<  c #33790C",
"1  c #266F1C",
"2  c #3E6F12",
"3  c #2B7513",
"4  c #267918",
"5  c #387918",
"6  c #18772B",
"7  c #2C7B2A",
"8  c #287E2B",
"9  c #27773A",
"0  c #337830",
"q  c #44470D",
"w  c #446F15",
"e  c #437E13",
"r  c #2B4D4D",
"t  c #1A7348",
"y  c #196653",
"u  c #1D7555",
"i  c #2A7649",
"p  c #247D51",
"a  c #0F7163",
"s  c #147472",
"d  c #117778",
"f  c #347A65",
"g  c #800000",
"h  c #018401",
"j  c #0B8403",
"k  c #028C02",
"l  c #0C8B03",
"z  c #138604",
"x  c #1A8704",
"c  c #148B04",
"v  c #1C8D05",
"b  c #029302",
"n  c #0D9303",
"m  c #039A02",
"M  c #0C9C03",
"N  c #149404",
"B  c #1C9305",
"V  c #149B04",
"C  c #1C9C06",
"Z  c #238D06",
"A  c #2A8A07",
"S  c #248D09",
"D  c #2B8D09",
"F  c #31850D",
"G  c #348B0C",
"H  c #3A8C0E",
"J  c #239306",
"K  c #299407",
"L  c #239B06",
"P  c #299B07",
"I  c #259408",
"U  c #2C9409",
"Y  c #259B08",
"T  c #2C9B09",
"R  c #33950B",
"E  c #3A960D",
"W  c #349B0B",
"Q  c #3B9C0D",
"!  c #218913",
"~  c #2E8019",
"^  c #368314",
"/  c #388316",
"(  c #3E8C12",
")  c #239012",
"_  c #3B9613",
"`  c #08A403",
"'  c #13A304",
"]  c #1CA406",
"[  c #1CA806",
"{  c #22A206",
"}  c #29A907",
"|  c #26A308",
" . c #2CA309",
".. c #2CAB09",
"X. c #34A30B",
"o. c #3CA30D",
"O. c #34AB0B",
"+. c #3CAB0D",
"@. c #28B309",
"#. c #34B10B",
"$. c #3BB30D",
"%. c #37B90C",
"&. c #3FA810",
"*. c #2C8427",
"=. c #358827",
"-. c #298836",
";. c #42960F",
":. c #419D0F",
">. c #448313",
",. c #448713",
"<. c #4A8C15",
"1. c #508618",
"2. c #449511",
"3. c #4C9315",
"4. c #449D10",
"5. c #4A9C13",
"6. c #559717",
"7. c #42A40F",
"8. c #42AB0F",
"9. c #49AC0F",
"0. c #42B20F",
"q. c #49B30E",
"w. c #41B90F",
"e. c #45A310",
"r. c #4AA511",
"t. c #4BA412",
"y. c #45AB10",
"u. c #49A911",
"i. c #4BAB12",
"p. c #4AAD11",
"a. c #49A51C",
"s. c #53A614",
"d. c #5CA517",
"f. c #53AC14",
"g. c #5AAC16",
"h. c #45B210",
"j. c #4BB311",
"k. c #45BB10",
"l. c #4CBA12",
"z. c #53B314",
"x. c #5AB415",
"c. c #54BA14",
"v. c #5ABB15",
"b. c #61A818",
"n. c #61BB17",
"m. c #64B718",
"M. c #4EC113",
"N. c #55C114",
"B. c #5CC216",
"V. c #5CCC16",
"C. c #61C317",
"Z. c #64C418",
"A. c #66CC18",
"S. c #1B8352",
"D. c #2A8750",
"F. c #299453",
"G. c #0F816C",
"H. c #158E71",
"J. c #1B9771",
"K. c #338C6C",
"L. c #1EA676",
"P. c #489B7E",
"I. c #0F7582",
"U. c #108788",
"Y. c #0C8497",
"T. c #0D9D97",
"R. c #139696",
"E. c #3F909A",
"W. c #12A18F",
"Q. c #0EA79B",
"!. c #15A991",
"~. c #098DA6",
"^. c #0C93B4",
"/. c #0FB1A5",
"(. c #0CB5A9",
"). c #09BAB4",
"_. c #09BFBA",
"`. c #43928A",
"'. c #4395A5",
"]. c #08C0BD",
"[. c #079BC3",
"{. c #07ADC9",
"}. c #05ABD7",
"|. c #04ACE1",
" X c #04B5E4",
".X c #03BBEE",
"XX c #00B5FF",
"oX c #01BBFE",
"OX c #48ACC6",
"+X c #48B0CB",
"@X c #4DB8D5",
"#X c #4DBFDD",
"$X c #09C4C3",
"%X c #07CBCA",
"&X c #09D2CE",
"*X c #06D7D7",
"=X c #07C6F9",
"-X c #01C4FE",
";X c #01CAFF",
":X c #18C9F8",
">X c #01D4FD",
",X c #34C7EE",
"<X c #39C4E9",
"1X c #29C7F1",
"2X c #05E5E5",
"3X c #08E0E1",
"4X c #04EBEB",
"5X c #02E1FE",
"6X c #02EBFD",
"7X c #03F2F2",
"8X c #02F8F7",
"9X c #02F7FE",
"0X c #00FFFF",
"qX c #4EC5E5",
"wX c #4BC6E8",
/* pixels */
"v.c.B X.p.W w e.+.X.+.J x +.X.x.y.Q f.y.8.Y +.h.X.+.U X.o.P o.p.5.c.| h.X.{ j.h.j.W W Y B U W x.i.e.y.S U L O. .I W Q 4.+.v U X.",
"u.y.9.Q R R 4.y.U v W W J T ..o.4.{ T X.9.X.U R R W Q I y.e.Q W 4.t.K z.+.+.z.y.E +.O.J 7.t.Q f.Q X.e.6.Q I W U W U c O. .K K v ",
"l...#.B U p.$.+.Q k U u.o.o.X.J V { I Y t.Q J Q P i.p.Q X.u.o.J T Q 4.t.W Q 7.L L n U P 7.T 8.o.Q S R l.i.Q e.y.e.X.h K L W B K ",
"j.W +.v U h. .2._ ` p.j.i.+.+.J  .c K R t.o.C O.$.T Q Q U f.W B y.Q y.Y +.R Q l.T l U R i.k 9.u.T X.Y y.z.+.Q p.y.T W O.l o.7.W ",
":.u.z.W 8.U W z.E k t.B.t.U y.o.e.b e.J Q W B X.o.C ;.J x 8.i.J e. .t.B z.v.o.c.D $.+.+.9.B O.i.B j.X.Q z.T R c.l.| o.P C W f.Q ",
"+.o.s.X.P R +.z.y.t.o.A.o.x Q Q f.I y.Q Y  .O.4.Q B t.7.l.j.+.c K W o.Z g.A.l.u.u.c.8.} O.Y T p.h.+.s.Q :.P v f.U S y.W c ..y.| ",
"| W X.:.J #.+.t.f.W h.h.Q i.z.K e.U P y.I  .l.j.u.J i.n.l.7.W } Q o.e.X.e.f.i.4.e.c.z.B J v U E y. .y.6.6.o.W u.X.X.p.o.I @.+.T ",
"Y 0.K 8.l.w.o.7.4.e.y.4.Q Q s.K h.O.U h.J X.O.e.i.Y 7.m.z.U B L O.p.u.8.X., * > R l.f.t.7.o.+.+.4.u.X.5 9.o.W q.#.#.Q z.h.C  .X.",
"E +.&.%.V.h.t.4.T f.p.O.p.u.u.+.W R O.o.R K W z.Q | X.t.p.2.L X.| h.h.$.S . O # & : u.i.n.f.8.l.m.e.W T 8.e.U 7.e.D V q.t.J u.:.",
"p.X.C L e.t.o.u.} p.t.C t.W $.#.X.Q y.R t.p.W i.Z x o.7.f.Q X.t.I z.e.X.A + # + # + < o.s.z.X.+.q.o.:.E :.7. .L 8.8.I Q f.9.l.o.",
"$.2.j T U 4.W e.Q U e.W u.e.t.o.B v 4.t.k.l.U R X.{ h.7.t.:.T z.p.u.y.4.q $ g $ #   * E W :.i.B W o.W P :.K k M u.c.p.2.t.+.#.X.",
"O.o.p.&.u.e.P e.W #.$.+.c.h.h.e.A G e.u.X.f.N C p.O.X.o.+.P Z +.u.5.h.1 @ g g g # . F z.o.W Q b Q 7.v B Q B ; l f.f.j.x.i.8.x U ",
"O.W x.y.Q i.h.E c h.+.h.X.X.X.4.p.c.u.+.7.t.X.$.P R B J Q | Z U K U -.T.o % g g O : L +.h.L n Z Q Q E X.+.P J +.u.9.9.7.e.o. .U ",
"Q e.t.i.Q W e.Q E 4.Q y.+.U P X.9.7.R l.N.8.U I U y.O.c o.o.K X.X._ /.0X].r @ # X ; X.T e.U u.E E :.o.u.U J B j.8.o.W P t.4...T ",
"e.y.i.y.W p.W e.E R 4.W X.} K $.$.c W f.+.Q W R o.c.X.Z #.+.W  .k.F.7X0X0X7X$XR.R.*.T X.W X.5.2.z.z.O.T O.$.Y +.e.Q  .| b.d.X.X.",
" .{ W U B o.] o.o.2 Q p.j U R o.+.K i.t.U 9.p.+.p.e.R L y.X.y.W W p &X8X0X0X0X0X&X=.B X.X.h.C f.C.v.W Y P X.R O.e.I 0.z.f.s.+.X.",
"i.y.B e.E e.$.0.y.6._ f.J D e.y.U D o.X.+.B.z.O.X.o.R v t.7.i.U ) (.3X$X*X4X8X8X!.o.+.W l v ..z.y.y.u.Q v l i.7.U v t.x.l.X.U +.",
"$.f.Q t.R o.7.o.u.e.Y 5.4.{ X.U e.y.X.Q R 8.8.O.+.R :.X.U z.x.z S.4X0X8X*X$XT.J.-.h.X.t.W h  .h.i.M z.o.8.o.8.7.+.9.U W i.W k o.",
"I o.f.s.W +.#.K ( X.R o.R J l b h.i.v 4.R W C X.i.7.j...B X.i., Q.0X0X0X0X8XJ.Q c.l.W Q i.W o.T c.X.y.W +.t.U i.O.j.y.L u.i.R 4.",
"E X.&.h.J W U S e. .W y.J K p.h.$.u.z 4.T p.K ..8.5.7.R K E Q t 2X0X0X0X0X2X-.#.X.W o.e.$.8.e.R t.i.X.} 5.o.Q R J R t. .O.j.L Q ",
"j.W p.8.Z l.0.W +.X.+.+.z.' z.N.X.9.l :.o.y.Z I W 4.Q T K y.*._.0X0X0X0X0X).S L K Q u.R o.l.j.Q J y.X.b o.9.z.U e.J Q X.v 7.l c ",
"b O.v.Q 8.$.0.B.y.o.e.X.E Z W O.Z o.V 7.z.E v L L +.h.W ; F.$X0X0X0X0X0X9XL.{ B Q 5.o.8.O.p.i.g.K m 8.Q h } 9.S 8.i.J C W +.R K ",
"R c t.U X.$.0.i.o.X.p.P l +.W T Q  .W f.z.T J X.} U 4 S.(.7X0X0X0X0X0X0X9XJ.L } Q 8.M 7.e.e.+.f.Q z R g.Q | W 7.7.i.{ ..O.8.X.z.",
"v.k Q P 7.p.B e.p.o.Q B W A.L  .O.O.Z c.l.| B 4.1 G.%X7X0X0X0X0X0X0X0X0X9X).- U o.8.P f.e...&.e. .B 7.f.h.X.U #.o.U T c.O.W O.t.",
"u.W Z W B.e.p.&.t.o.X.W t.g.E U 7.P W o.Q X.R 7 (.8X0X0X0X0X0X0X0X0X0X0X0X8XU., o.U +.Z.e.B X.i...W z.i.U &.Q o.O.j U t.t.W 7.:.",
"e.f.X.#.i.y.v.y.x.c.$.t.f.+.+.J J C Q o.C Q ^ Q.0X0X0X0X0X0X0X0X0X0X0X0X0X0X4Xu T o.U f.Q T e.p.e.Q X.s.p.+.S P O.v P i.Q +.I Z ",
"e.j.y.z.Q Q t.e.e.p.I 4.2.v ..T v 0.0.o.k 7.D.4X0X0X0X0X0X0X0X0X0X0X0X0X0X0X0X].~ B U W Q &.W  .+.0.{ O.X.W P  .U P P R e.o.#...",
"Q s.e.t.R v U t.x.k.C t.9.X.7.v.R 9.z.X.v H W.0X0X0X0X0X0X0X0X0X0X0X0X0X0X0X0X2X6 h o.o.W I &.$.W X.C | X.W W N  .W l.o.+.v.9.+.",
"Q 5.o.| N B e.W z.y.N y.X.I L z.:.f.9.#.v.=.%X0X0X0X0X0X0X0X0X0X0X0X0X0X0X0X0X4X-. .+.5.W | W f.W :.k c U t.U J X.&.M.z.i.:.t.W ",
"W L h.W U U j.O.&.e.B K I y.P W ,.Q R 7.z.D.7X0X0X0X0X0X0X0X0X0X0X0X0X0X0X0X0X*X7 e.k.e.$.$.z.C.8.t.e.W L e.E T U O.y.t.i.9.W I ",
"o.X.W i.t.J X.e.| k.e.B W U E { E ^ Q t.3.!.0X0X0X0X0X0X0X0X0X0X0X0X0X0X0X0X0X).3 u.X.7.#.] t.U e.&.g.n.Q y.+.@.C U y.l.x.o.U Y ",
"X.i.z.u.e.L C W x.o.t.y.&.E o.b 9.#.E s.=.{.5X>X>X;X;X;X>X>X5X6X9X0X0X0X0X0X0XU.G 7.v 7.} C Q i.h. .o.s.e.h.O.M R R h.z.m.W Q | ",
"o.o.f.o.O.R M [ f.4.O.C.u.L 7.= T +.X._ u .XXXXXXXXXXXXXXXXXXXXXoX;X5X9X0X0X4Xt +.e.v Q T W U o.P U X.W &.&.U = :.o.y.R f.t.E S ",
"Q u.u.e.T K k ' X.Q X.t.t.B 8.l.U Q ..v U.;X;X-XoXXXXXXXXXXXXXXXXXXXXX-X5X0X].5 } 4.Q z.j.T K K Q Q 7.z.j.W z W B O.+. .o.z.+.R ",
"4.Q y.X.o.u.l R 8.8.7.} f.:.T z.} l.U 6 [.;X;X;X;X-XoXXXXXXXXXXXXXXXXXXXoX;XH.+.Q [ ,.u.t.B S W W 7.s.c.i.W X.f.l.h.X.| B i.+.Q ",
"t.b O.T Q X.I K s.7.0.O.z.g.P :.W e.2.t  X;X;X;X;X;X;X-X-XoXoXXXoXoXoXoX-X|.9 j.h.m C X.Q O.Q W P U 8.i.t.U  .s.c.} y.I U t.Q Q ",
"p.B U K Y  .4.h.j.R Q O.O.+.y.z U X.a.I.;X;X;X;X;X;X;X;X;X;X;X-X;X;X;X;X;X~./ Q U E z U 8.9.j.v.o.T +.y.n.i.P W T h $.7.y.O.+.y.",
"w.P L e.J O.y.l.$.i.i.} v E y.W T +.8 ^.;X;X;X;X;X;X;X;X;X;X;X;X;X;X;X;X=Xu ( I Q f.L C o.9.X.$.W q.i.9.z.t.W o.v B t.s.X.n U #.",
"X.p.X.e.2.+. .+.y.e.j.| Y E 2.} v W y  X;X;X;X;X;X;X;X;X;X;X;X;X;X;X;X;X}.7 y. .I X.X.m p.t.+.#.P R t.n z.p.W X.U +.f.f.U v U i.",
"E W y.T e.O.U T X.t.p.T V W e.X.o.< d =X;X;X;X;X;X;X;X;X;X;X;X;X;X;X;X;XY.e.h.c.+.v R = j.z.O.U Q h. .v o.8.B X.0.U Q O.X.U X.i.",
"X.C z W L L X.K U U E U c $.y. .h.1 [.;X;X;X;X;X;X;X;X;X;X;X;X;X;X;X;X.Xt i.Q i.k.C D P 7.t.U U h.9.y.W M M h W c.} v U W h.J Q ",
"k.X.k O.P x +.h.J Q I U Z Q h.W E y .X;X;X;X;X;X;X;X;X;X;X;X;X;X;X;X;X[.1 R W } W X.%.$.+.W y.o.e.E t.P I l Q 8.h.O.z.W O.y.+.h.",
"z.p.c #. .W } Y X.i.W $.+.U X.X.5 ~.;X;X;X;X;X;X;X;X;X;X;X;X;X;X;X;X=Xd H U X.U E x.l.b l.+.7.o.y.t.4.K Q W s.9.R $.v.U  .4.W c.",
"s.<.J e.h.&. .T t.C T p.i.'  .U 0 }.;X;X;X;X;X;X;X;X;X;X;X;X;X;X;X;X X9 o.7.L h.e.f.U C +.+.8.:.j.R Q X.8.7.:.i.2.y.:.W J W E t.",
"7.p.4.e.W Q A +.e.v X.Q e.o.O.S s ;X;X;X;X;X;X;X;X;X;X;X;X;X;X;X;X;X~.( o.7. .o.W Q Q +.B R o.I U Q O.l.y.Q C W h.+.R  .W 5.Q p.",
"+.+.o.W v 9.K W 9.7.( T N p. .1 ^.:X,X,X,X,X1X:X:X;X;X;X;X;X;X;X;X=Xy Q I W h.X.W h.y.J R +.Q K Q u.+. .i.z. .k +.C C v +.6.>.y.",
"X.z.+.| v D W K t.o.v N o.W 2.0 OXqXqXqXqXqX#XqXwX<X1X:X;X;X;X;X;X[.7 o.v o.f.L W l.k  .O.J ;.9.z...X.N j.t.Q O.W l l V l.Y e.s.",
" .c.f.Z  .u.e.Q U | U T +.z.s.5 '.qXqXqXqXqXqXqXqXqXwXwX1X;X;X;X;Xd :.o. .o.4.j W E S L v.E e.U f.W o.c.i.4.W t.X.E j  .j.+.o.&.",
"K o.y.W +.e.o.{ C [ O.c.P u.E N f @XqXqXqXqXqXqXqXqXqXqXqX,X=X;X X9 j.+.h...+.F Q X.X.Z f.+.R R R o.R s.v.y.S Q +.e.U W 4.j.T W ",
"e.7.$.u.h. .,.Y ..C W s.f.z.P V ! '.qXqXqXqXqXqXqXqXqXqXqXqX,X:X~.4 O.I W P J z.f.X.o.o.e.o.Q f.X.V R 7.z.T U W o.E _ Q W x.Q X.",
"C.e.T l.#.Q 6.U Y c 4.t.z.x.] h.P ; `.@XqXqXqXqXqXqXqXqXqXqXqX,Xa I x I R 4.J y.t.4.R e.y.z.l.O.q.v o.w.y.U &.h.y.R e.X.p.c.h.$.",
"j.o.Q f.| o.z.X.c y.y.$.Q y.v y.:.E ^ i '.OX#XqXqXqXqX#X@XOX'.f ~ ` R Q W t.e.L R Q T +.y.h.s.Q 9.+.o.7.O. .T X.y.m k.j.o.8. .e.",
"i.U W f.S i.p.Q W C.t.T +.o.R U t.v.$.P , 0 f K.P.P.K.D.0 =._ U +.N S o.W R +.B o.o.O.+.O.| Q f.Q E J i.n.e.U |  .@.y.f.e.J v e.",
"e.W e.y.W h.e.Q y.h.f.+.}  .u.u.#.c.0.8.7.Q 9.X.E E v T Q T k.X.&.J U ] v U | P R W +.J B e.j.7.+.2.R e.t.Q I O.O.I c } O.j.+.y.",
"W +.i.h.0.X.Q X.| U $.| Y j.z.i.B.j.9.B.q.T :.o.v q.o.P o.J W 7.u.L h.J V h.X.W U Q X.J E +.X.&.@.+.E J J } L L W U D v T z.N.&.",
"W o.4.u.o.Q U 7.W z l B X.x.z.( g.8.o.x.o.h W u.X.7.X.L ]  .Q 9.y.c Q y.T v.+.U h.2.x W h...U Q L U U Z C X.O.X.R i.+.S Z i.j.W ",
"4.z.t.t.y.t.o.P j.Q ^ U o.Q K t.6.W Q t.C Q 7.Q X.E U U B P W $.X.C u.i.U f.R B U 7.U U c.y.n W E l G o.J S T X.t.o.1.<. .W y.E ",
"O.O.y.t.t.h.u.v j.v.e.E +.P U l.4.c e.W h 8.W Q Q 7.:.W S U W o.7.W 8.7.Q z.U X.K z.p.X.t.Q q.] U W B <.U J U y.y.u.1.5.k.y.o.j.",
"T E u.W 7.Z.y.U _ +.} B X.T 9.B +.X.Q D +.h.I  .:.:.g.e.Q Q Q Q p.W W e.} O.8.W J 7.+.&.e.4.Z.+.h.j.| f.T | h.B.X.i.+.X.j.9.9.:.",
"T W &.T  .f.e.B e.Q c v U x Q R y.#.B _ y.o.I U 9.L s.4.o.>.E o.Q h.h.c.X.y.o.Z j. .J 4.i.+.s.i.X.i.U h.+.Y +.X.Q g.e.U e.I 7.:.",
"$.f.] T I U E W k.Q x 0.h.h.t.W +.L h W  .E p. .| } E X.8.e _ h.$.W 7.0.c.l.I J z.+.V U &.j.X.i.X.W y.Y 8.I X.U 7.B.u.W 7.W Q y.",
"$.z.h.h W +.B i.u.K Q +.T c.O.w 3.X.j J P k Q 7.Z $.W B c. .P T j.:.Z W f.t.P C W c I T Q i.+.o.8.| +.u.f.:.v U t.e.8.N z.7.P $.",
"o.e.z.T L +.X.j.E E X.] c y.X.F o.$.W p.X.P U t.u.9.U N 9.Q T I i.c.X.W B Q Z L U U p.8.+.Q W i.h.| U z.8.:.+.O.z.7.L | e.W L Y ",
"f.X.&.k.+.E U i.K p.z.J k R O.l.{ y.z.p.+.S e.j.O.p.+.Y K t.y.f.c.z.O.7.j R W o.i.+.y.W U T J e.4.E J 4.o.X.$...W i.Z U { P K D "
};
