/* XPM */
static char *c4ca320be68c439fd77d9862b84f4c1bX3acbLP4qDv1oEph[] = {
/* columns rows colors chars-per-pixel */
"64 64 225 2 ",
"   c #47360D",
".  c #48360F",
"X  c #493710",
"o  c #4C3A12",
"O  c #513F13",
"+  c #513F1A",
"@  c #554214",
"#  c #5B4717",
"$  c #54421B",
"%  c #624E16",
"&  c #695416",
"*  c #6B561B",
"=  c #6D591D",
"-  c #705A16",
";  c #725D1C",
":  c #437714",
">  c #786319",
",  c #7C651B",
"<  c #5A4724",
"1  c #604C24",
"2  c #6A5727",
"3  c #725D23",
"4  c #6A5836",
"5  c #6C5934",
"6  c #725E33",
"7  c #715E3C",
"8  c #597D32",
"9  c #7A6428",
"0  c #75623D",
"q  c #796638",
"w  c #687837",
"e  c #727C3D",
"r  c #766343",
"t  c #7B6544",
"y  c #7D6B45",
"u  c #7C6A4A",
"i  c #7B7744",
"p  c #856C18",
"a  c #846C1B",
"s  c #8E7517",
"d  c #8C741B",
"f  c #907718",
"g  c #947B1B",
"h  c #987F1C",
"j  c #846C23",
"k  c #836D2C",
"l  c #8A7325",
"z  c #947B25",
"x  c #846E35",
"c  c #8A7235",
"v  c #917B32",
"b  c #816C45",
"n  c #866E4B",
"m  c #886F4D",
"M  c #85724C",
"N  c #89714E",
"B  c #817848",
"V  c #917E4A",
"C  c #857252",
"Z  c #8B7452",
"A  c #8C7956",
"S  c #897959",
"D  c #917B56",
"F  c #927E5B",
"G  c #8D7D63",
"H  c #018C01",
"J  c #098903",
"K  c #168605",
"L  c #148B04",
"P  c #1C8C05",
"I  c #079603",
"U  c #169705",
"Y  c #1C9205",
"T  c #1D9C06",
"R  c #238E07",
"E  c #288C09",
"W  c #229306",
"Q  c #2A9407",
"!  c #229B07",
"~  c #299C07",
"^  c #259309",
"/  c #2B9409",
"(  c #259C08",
")  c #2C9B09",
"_  c #33960B",
"`  c #3B960D",
"'  c #339C0B",
"]  c #3B9C0D",
"[  c #2B8F13",
"{  c #388A17",
"}  c #399714",
"|  c #1AA306",
" . c #22A307",
".. c #27A408",
"X. c #2CA209",
"o. c #2CAC09",
"O. c #34A30B",
"+. c #3CA30D",
"@. c #35AB0C",
"#. c #3CAB0D",
"$. c #2DB10A",
"%. c #34B10B",
"&. c #3BB30D",
"*. c #3DA812",
"=. c #41960F",
"-. c #419D0F",
";. c #458618",
":. c #508618",
">. c #449D11",
",. c #4B9C14",
"<. c #489818",
"1. c #549818",
"2. c #42A40F",
"3. c #42AB0F",
"4. c #49AC0F",
"5. c #41B20E",
"6. c #44A310",
"7. c #4AA412",
"8. c #45AB10",
"9. c #4BAB12",
"0. c #48A31A",
"q. c #52A614",
"w. c #53AC14",
"e. c #55A71A",
"r. c #45B210",
"t. c #4CB312",
"y. c #45B910",
"u. c #4BBA11",
"i. c #53B314",
"p. c #5AB315",
"a. c #53BA14",
"s. c #5BBB16",
"d. c #62AF18",
"f. c #4C8626",
"g. c #598B29",
"h. c #4B9A24",
"j. c #579925",
"k. c #5F8632",
"l. c #5C9A32",
"z. c #628A2D",
"x. c #678435",
"c. c #73873B",
"v. c #6B9632",
"b. c #679939",
"n. c #5BA426",
"m. c #5FA532",
"M. c #66A531",
"N. c #4EC113",
"B. c #5BC316",
"V. c #63C917",
"C. c #788448",
"Z. c #749349",
"A. c #789748",
"S. c #9C831D",
"D. c #A1861E",
"F. c #A4891E",
"G. c #AA8D1E",
"H. c #AE911E",
"J. c #B3951E",
"K. c #B7981F",
"L. c #B99A1F",
"P. c #ADB51F",
"I. c #9D8322",
"U. c #959A24",
"Y. c #9E8737",
"T. c #A18721",
"R. c #A58A22",
"E. c #A98E22",
"W. c #A78C29",
"Q. c #AE9121",
"!. c #B29521",
"~. c #B69822",
"^. c #BC9C21",
"/. c #B99C2B",
"(. c #A68F38",
"). c #AD9437",
"_. c #9AA622",
"`. c #A2AA23",
"'. c #BFA022",
"]. c #BFA02A",
"[. c #A9B423",
"{. c #B5BA23",
"}. c #BDA23C",
"|. c #C3A21F",
" X c #C3A322",
".X c #C8A723",
"XX c #CBA923",
"oX c #C4A42A",
"OX c #C7A82C",
"+X c #CBAA2A",
"@X c #D1AE22",
"#X c #D1AE2A",
"$X c #D5B122",
"%X c #DBB521",
"&X c #DFB821",
"*X c #C2A534",
"=X c #E3BC21",
"-X c #E8BF21",
";X c #EBC221",
":X c #8B8758",
">X c #9B8957",
",X c #92815C",
"<X c #859553",
"1X c #A8934B",
"2X c #AB9650",
"3X c #B8A040",
"4X c #968868",
"5X c #968975",
"6X c #9C917A",
"7X c #A8966B",
"8X c #A4977A",
"9X c #BBA868",
"0X c #B6A576",
"qX c #A89E8D",
"wX c #B2A485",
"eX c #AEA595",
"rX c #B1A797",
"tX c #B7AEA2",
"yX c #BBB5A9",
"uX c #C2BCB3",
"iX c #C7C2BB",
"pX c #CDCAC3",
"aX c #D1CDC7",
"sX c #D4D1CC",
"dX c #D8D4D1",
/* pixels */
"s.a.Y ] 4.' : 2.#.O.#.W P #.O.p.7.] t.3.#.! #.t.O.*.^ @.2.) 6.9.>.a. .t.O. .i.4.9.' ' ~ Y / ' p.8.6.6.E _ T @.~ ^ _ ] 2.#.P Q ' ",
"8.8.3.+.` _ <.2./ Y ' ' R ~ @.+.-. .) +.3.+./ _ _ ' ] Q r.#.' ] >.7./ i.%.@.t.3.` #.@.W 6.6.] w.] O.+.1.' W ] ) ' Q L @.X.Q Q Y ",
"u.o.@.W / 9.@.#.] H ) 4.+.+.O.Y U  .^ ~ 7.] W +.) e.m.b.b.A.A.Z.A.A.A.A.l.n.q.( ! I ) ) 6.' 3.2.} ^ ' t.w.] 2.3.6.+.H / ! _ P W ",
"i.' %.P ~ 5.O.<.` I t.9.9.#.#.W X.L / / 7.6.} b.<X:X:X,XA Z N N Z D Z D D ,X:X<Xb.[ [ _ 8.H 8.8.X.+.! 9.p.#.] 9.3.~ _ @.J +.8.' ",
"] 9.i.' 3._ ) i.] H 7.B.7./ #.+.7.I *.[ b.A.4XA Z N N N N N N m m Z N Z n m Z Z F ,XA.M.0.U &.w.Y t.O.] i.~ / a.y.X.] ~ ! ' w.] ",
"#.+.q.O.~ / #.p.3.,.#.V.+.P ] ] 7./ M.<X,XZ N n N M Z N m N N n m N N m n n N Z Z m Z F <Xh.' 9.5.#.7.] 2.) P p./ R 8.' L o.3...",
"..' ' 2.W %.&.7.w.] 9.r.+.9.w./ n.A.,XZ N N Z n n N Z Z N Z Z Z Z Z Z Z Z n N N Z m Z m Z ,XZ.h.2.O.8.1.1.+.' 9.O.O.9.+.^ $.#.) ",
"! 5.Q 3.t.y.+.2.-.2.5.>.} +.e.g.:XZ N N N N M n N Z C u t 0 0 6 5 5 7 0 t n Z Z m n Z N n Z Z :XM.7.O.: 7.+.' r.%.%.+.t.9.| X.O.",
"_ 8.#.%.B.8.7.>.~ w.9.@.8.8.A.:XN N m Z m Z Z n 0 5 1 2 - , p p , ; , a = 2 4 r M Z Z n m N n Z :XA.} X.3.6./ 8.2./ U u.7.Y 4.,.",
"q.O.| W 6.7.2.8.X.9.9.| e.Z.,XN n m N n Z C 7 2 = - > a h S.H.F.h g S.G.S.a - = 2 7 C N N M N N n F A.} >.8.) ( 2.3.W ` q.t.u.+.",
"&.` K ~ ) 6.] 6.+.) 2.} A.F Z m n Z M Z t 2 > , a s s h S.F.H.G.h h D.J.F.S.g d , > 5 t Z N N N M m D Z.>.Q H I 9.a.9.] 7.#.o.O.",
"#.#.t.#.6.6.~ 7.' @.5.b.,XZ Z m n C Z 0 2 p g h S.g s S.I.F.J.G.S.h D.G.F.S.h S.T.S.p 2 0 V Z Z n m n 4Xb.P K L w.w.i.p.q.+.R ~ ",
"@.] i.8.] 9.t._ L 5.m.D Z Z Z m M C 5 = p D.F.S.h s s S.S.G.J.G.S.h S.J.G.h S.I.W.W.H.g > 7 M N n n N N ,Xh.Y O.7.4.4.2.2.+.X.Q ",
"] >.7.9.] _ +.] ' <.<Xn Z Z N m C 4 = , G.H.D.S.h g s S.S.G.}.(.S.h S.J.G.h S.I.W.Q.J.H.S.> 5 Z n N N N C C.[ u.3.@.' Q 7.-.o.) ",
"2.8.t.8.O.8.' 6.=.v.Z n Z Z Z Z 7 * , S.G.H.S.S.S.f s S.D.).wX,XS.S.D.J.G.S.S.R.W.Q.J.K.H.S.> 7 N N N N b S l.+.2.] O. .d.e.O.O.",
"O.| ] / W +.| @.0.C m n Z N Z t ; , g S.H.J.S.S.S.g g S.D.W.:Xx Y.S.D.J.G.S.I.R.W.Q.J.J.H.J.S.= t N N N b C C.*.2.~ 3.p.w.q.@.+.",
"8.4.Y 2._ 2.5.5.M.A M n N N n 2 p g S.I.Q.H.S.S.S.g g D.I.1XR.H.(.Y.F.J.E.S.I.R.Q.J.H.F.F.~.J.d 3 n M m t n Z j./ Y 7.p.t.O./ #.",
"#.q.] 7._ 2.#.+.c.N m n Z Z 7 , h D.S.T.H.H.S.S.S.g g D.1XY.J.J.W.1XH.L.E.S.T.E.Q.K.R.R.R.Q.~.G., 0 Z n t m m Z.#.4._ ) 9.' H #.",
"W +.e.w.] *.@.` :XM n n N M 3 s G.F.F.R.J.Q.S.S.S.g h (.>XI.^.K.G.(.1XL.E.F.F.E.Q.Q.R.R.Q.R.Q.!.h 3 N M t n n <X*.t.3.! 7.9._ >.",
"' O.2.t.W ) ) { Z n n n Z r , S.~.G.R.R.~.Q.S.S.S.h S.1Xc R.L.^.Q.I.1X).E.R.R.Q.!.Q.R.Q.R.R.E.~.E., q m t m n :X} _ 7.X.@.t.! ] ",
"i.' 9.3.R u.5.j.N N M n M 5 p H.L.H.R.R.J.H.F.S.d x >X8Xq x x q x q 7X7Xc c I.).~.!.R.R.Q.E.E.Q.~.f 6 N t Z n Z j.^ ] ' Y 2.J L ",
"H O.B.] 3.&.5.M.n N n n n 2 s ~.L.J.R.Q.^.H.S.R.9 5XtX8X4X5X6XqX5X6XqX5X5XG 9 Q.^.Q.R.Q.R.R.E.Q.^.D.3 N t n N Z n.4.W T ' #.] R ",
"_ L 7.Q O.&.5.v.n N n n u 2 h ^.L.J.R.Q.'.H.R.F.l eXpXeXyXdXtXu yXdXyX6XiXrXk Q.~.W.R.Q.E.R.Q.!.^.G.9 n t m m N j.9. .o.@.3.O.i.",
"s.H ] ~ 2.t.Y g.n m n n t * S.'.^.^.Q.J.'.~.R.F.l tXsXdXdXpXr   4 yXsXsXsXtXk H.~.E.E.Q.E.R.E.!.|.!.a u t m m N g.' X.a.O.' @.7.",
"3.' R ' s.*.8.j.n m n n t ; S.^.^.^.Q.~.'.J.R.S.l yXdXsXsXqX    X S aXsXsXyXx W.!.Q.E.R.R.R.Q.!. X~.a y t N M N <.J / q.>.' #.>.",
"2.p.O.@.i.8.s.j.M N n n u ; S. X'.^.Q.~.'.!.R.S.Y.yXaXsXsXrX5Xo 5XyXsXsXsXyXk G.!.Q.E.Q.E.F.Q.Q.|.^.j y b N N M 0.P ~ 9.2.+.W R ",
"2.t.3.a.} ] 6.1.n m n n C = D. X'.'.Q.L. X!.R.S.v yXiXpXpXdXiX4 qXdXsXsXdXyXk F.~.Q.R.Q.G.F.Q.Q.^.^.d b b m m M } ) / _ 8.3.@.o.",
"] q.>.7._ P / e.B n b n C t ). X'.'.'. X'.~.F.S.v rXuXyXiXsXpXyXiXpXaXpXiXeXk F.~.Q.Q.H.F.F.!.!.~.|.a n n N Z i } _ u.#.+.B.3.+.",
"-.,.#...L Y 6.} e m b m m C 0X.X'.'. X.X'.Q.S.S.l i C S 4X6X8X8X8X6X5X,XS t 9 F.^.Q.R.Q.E.R.!.!.^.^.j n m N N i } *.N.i.7.2.7.] ",
"' ! 5.' ~ / t.#.e m b n Z t 2XoX'. X.X.X].Q.F.S.I.I.d d d d h D.S.g d g S.I.g H.'.Q.Q.H.E.T.!.!.^.~.9 C m N N i } #.&.7.8.4.` W ",
"+.O.' w.7.Q +.+.x.m n n Z u 0XOX X X.X.X].Q.F.S.T.R.E.E.E.H.~..XXX^.Q.~.].].~.'. X!.H.Q.R.F.!./.^.~.9 Z N N Z i T / 8.t.p.+.~ W ",
"O.9.i.2.2.! T _ c.m b m A t 7X*X.X.X.X.X].Q.R.F.R.F.G.E.E.Q.!..X.X^.Q.Q. X].~. X'.Q.Q.!.G.G.!.~.~.!.9 A n Z M x._ _ t.i.s.' ] X.",
"#.2.q.+.@.' U | v.n n n A 0 z .X.X XXX.X/.!.E.D.F.F.p , p G.J..XXX'.!.H.'.].~..X|.!.Q.!.G.G.h j d D.k Z N N N 8 =.+.8._ w.7._ ^ ",
"] 7.3.6.~ ~ H | g.m m n Z y d  XF.a !..X].!.G.D.G.d @ . # a G. XXX'.~.H.^.I.j ^. X!.!.!.E.D.3 + * ; 6 A N N N x.T @.#.X.2.i.#._ ",
"-.] 8.O.] 8.J ' 1.M m n Z n j p @ o % S.].!.H.D.d @ X X . O ; ~.XX.X^.R.> # $ - G.~.!.!.F.* + $ + + 4 A N N N z.u.r.O.( W 8.+.] ",
"4.J @.) ] +.W / n.M n M Z n # o O O O # l Q.!.f @ . o X X X X > '.XXQ.* o @ $ @ & z K.Q.- o + + + o 4 Z N N N z.u.X.5.Q / 7.-.] ",
"8.Y ) ^ ~ X.>.r.e.B N N N C $ o .   O @ 1 , h # . . . O O X X o d L.= + o @ @ @ # # z a X + $ # < + 7 C Z m N j.~ H 5.2.3.@.#.2.",
"y.~ ! -.W O.#.u.8.i m M N C $ o # p - @ 1 $ @ o . . % g p @ X O & & o o + # p % O + O O . o % z d + r Z N m M j.R Y 7.w.+.I ) &.",
"O.2.+.2.>.#.X.#.8.e N m N A < # D..XL.p 1 + o o   % D.J.J.h & # % o @ $ - H.$XJ.; + + O . @ T./.^.j b Z N N n h.^ +.9.w./ P Q 9.",
"` ' r.) 6.O.) ) ] c.N N M A 6 h K..X$X^.R.& # @ % S.H.J.K.K.G.d % O @ - G.'.$X$X~.a # @ O g ^. X^.j n m N N M } 5./ ` @.O.) O.7.",
"O. .J ' ( ! +.Q R x.n m N A x S.J.|.$X|.oX!.T.h F.E.J.J.K.K.J.K.F.& - K.^.L.$X$X.XL.F.S.D./.^./.K.j n Z Z M i <.a.X.P / ' 5.^ ] ",
"y.O.J @.Q K +.5.^ g.N m N A q S.K.|.%XXXoX^.L.!.J.G.J.E.!.K.K.L.L.G.|.|.L.L.|.&X.X^.L.}.0X0X9X].K.9 C Z N M i 7.r.%.i.) @.8.O.t.",
"p.4.Y %.' ' o. .+.v.m m N A x z J.|.&X|.oXoXL.~.H.H.J.H.J.L.K.K.L.|.&X%X'.L.|.%XXX^.'.0X8X4X8X9XJ.9 C Z m N c.q._ 5.s._ X.>.] s.",
"q.;.Y 2.5.#.X.) 8.{ M M m Z n d J.|.&X|.oX X^.L.J.H.J.H.J.^.K.^.L.|.%X%X.X^.|.%X%X'./.wXrXwXrX0XQ.3 S N N N e 7.` 8.-.' Q ' ' 6.",
"2.4.] 7.) -.E 3.2.[ M N m Z n j J.XX&X.X XoX~.^.K.J.J.J.K.~.^.L.L.|.%X%X|.|.L.%X&X.XW.,XrXyXrX2XG.3 A Z N N 8 O.4.#._ ~ ' ,.>.8.",
"#.#.+.' Y 3.Q _ 2.,.b N m C C j H.XX&X|.oXOX X^.L.J.J.J.J.L.|.^.^.|.&X&X|.'. X$X&XXX~.l M F >X/.F.q A m n N k.H #.T | Y #.,.;.7.",
"O.a.#.~ P Q ' / 7.<.i m n N Z x 3X|.=X.X X+X'.'.L.K.K.J.K.K.^.^.^.|.=X&X$XL. X%X&X$X X~.z I.^. XD.q A Z N N g.+.' J L U u.( 2.q.",
"X.a.9.R O.7.2.] ) ) e m m m C r 0XoX=XXX^.+XoX'.L.J.J.J.K.L.^.^.'..X=X&X$X'. X%X=X$X X XL.L.^. Xh 0 Z m n N g.9.+._ J X.t.#.] #.",
"~ 2.2.] %.2.2. .T | x.n n N Z 7 4XoX%X|. X#X+X X^.K.K.K.K.~.L. X'.XX=X=X@X'..X%X=X$X.X X'.L.'.'.g 0 Z C N N ;.' #.6./ ] ] t.) ) ",
"2.2.&.9.3.X.;.~ o.T x.m m N A r 8X*X%X@X'.XX+X X^.K.K.K.K.L.^. X'.|.=X&X.X'. X&X-X%X+X.X XL.'. Xg t Z m Z M ;.] +.} ` ' ] p.+.O.",
"V.-.~ t.%.+.1./ ! L z.N n m Z r 4X*X&XXX^.XX+X XL.K.L.K.K.^.L. X'.XX=X=X.X'..X=X-X&XXX+X X^.'.'.d u Z m Z C 1.5.3.' 6.O.r.a.8.&.",
"t.#.] w.! +.p.O.L 8.z.N m Z A q z ^.$X@X^. X#X X XK.L.J.L.'.^. X|.XX-X=X.X.X.X;X;X-XXX.X.X^.'.^.j n Z m Z B } O.3.I 5.a.+.3.O.6.",
"7./ _ w.E 4.8.>._ V.j.M m N Z b h ^.$X%X|. X#X.X XL.L.L.L.^.^. X|.$X;X&X.X'..X;X;X-X$X.X X X'.^.j n Z m Z B } ! ..o.3.w.2.W P +.",
"2.] 3.8.' r.6.] 8.4.n.C N M Z n d '.$X=X X'.#X.X XL.L.K.L. X'. X.X%X;X%X.X.X|.&X;X;X&X.X.X X XJ.9 C N n N i [ %.@.( L X.#.9.#.8.",
"O.+.t.r.5.O.] O.~ / 0.i N m N M d ^.$X-X X X#XXX X~.L.K.^.^. X.X.X%X;X&X.X'.].%X;X;X&X+X X'. XJ.9 n N m N C.W ! ) / / Y ) i.B.#.",
"' ] -.7.2.] ~ 2.' P L i n M C Z j ^.%X;X@X^.XXXX X^.L.L.^. X'..X.X&X;X&X.X X'.@X;X;X;X@X.X X.XH.9 C N m N c.@.O._ 9.+.R E 7.u.' ",
">.i.7.7.3.7.+.~ t.` { i n n m Z j ~.=X;X%X X.XXX.X'.'.J.'.'. X XXX=X;X=XXX'..XXX-X;X=X#X.X X.XG.6 Z N N C x.) O.7.6.;.:.X.O.7.] ",
"O.@.8.7.9.9.8.P t.s.7.e m m m S k L.-X;X%X X.X.X.X^.^.K.'.'.XXXXXX;X;X&X.X'..XXX;X;X%X+X X XXXF.6 A Z N b 8 / r.8.6.:.,.y.3.+.t.",
") ' 7.' 2.V.8./ ` 8.X.8 C m m S 9 ^.;X;X=X|. X.X.X'.'.J.'.'.XXXXXX;X;X&X.X.X.X+X;X;X%X$X X X.XF.6 Z C N n f.r.B.O.9.#.O.i.3.4.] ",
") } 8.~ X.q.6.Y 6.O.L 8 m m m A q J.;X;X=X.X.X.X.X'.'.'.'.XXXX+X$X;X;X$X+X'.'.@X-X;X%X@X X X.XR.q Z t C b f.#.' ] p.7./ 2.~ 2.=.",
"&.9.| ) / / _ ] y.+.P z.N N C D y U.[.{.P.`.`._._._._.U._.E._.`.[.{.{.[.[._._._.{.{.`._._.`._.U.0 Z t M M ;.O./ 2.B.2.' -./ ] 3.",
"&.p.8.H ' #.Y 9.6.Q ] 0.x.v.z.w z.*.L ^ ) J ] 2.W &.' Y a.O...' t.>.R O.t.7.) T } P ! ) 6.9.O.+.n.k.x.c.c.1.P ~ 7.2.3.U p.3.) &.",
"+.2.p.X.! &.X.i.] _ O.U P 8.O.E O.&.' 9.O.) / 7.9.2.~ L r.-.) ^ 9.a.X.] Y ] W W / ) 9.6.#.} ' 9.r.( ( i.3.-.3.O.i.2.W X.+.+.! ..",
"9.+.#.r.O.` _ 9./ 9.i.^ H _ +.t...3.i.8.3.R 2.a.@.8.#...^ 7.6.q.a.a.O.+.K ' ' +.9.@.8.' ~ ) R 8.>.] W -.+.O.&.$.' 9.E /  ./ / R "
};
