/* XPM */
static char *_47a3d9977b547b3de4b4493c66ac08cSsk0nSRMYedINrfs[] = {
/* columns rows colors chars-per-pixel */
"64 64 256 2 ",
"   c #010114",
".  c #03082A",
"X  c #0E162E",
"o  c #050B39",
"O  c #0B143B",
"+  c #14193A",
"@  c #2A0F34",
"#  c #18253A",
"$  c #262C38",
"%  c #52140D",
"&  c #64181E",
"*  c #763027",
"=  c #2A5629",
"-  c #437914",
";  c #655F38",
":  c #050C47",
">  c #091547",
",  c #0C134C",
"<  c #141846",
"1  c #131B4B",
"2  c #060D54",
"3  c #0D1553",
"4  c #0C1B54",
"5  c #091558",
"6  c #0D1B5B",
"7  c #131B54",
"8  c #161A56",
"9  c #121C5C",
"0  c #182449",
"q  c #0E2159",
"w  c #142154",
"e  c #14225C",
"r  c #1B2559",
"t  c #282E46",
"y  c #2B334A",
"u  c #222858",
"i  c #2B3657",
"p  c #333A54",
"a  c #0D1C63",
"s  c #0C1866",
"d  c #151965",
"f  c #121D64",
"g  c #121D6B",
"h  c #161D75",
"j  c #0D2269",
"k  c #152262",
"l  c #1B2364",
"z  c #1C2C63",
"x  c #14226B",
"c  c #1B266B",
"v  c #1A2776",
"b  c #132A74",
"n  c #242967",
"m  c #362B61",
"M  c #293467",
"N  c #333B66",
"B  c #242A76",
"V  c #293578",
"C  c #353B76",
"Z  c #44376D",
"A  c #374D53",
"S  c #3B465C",
"D  c #3B446A",
"F  c #38447B",
"G  c #3D5470",
"H  c #454956",
"J  c #4B5558",
"K  c #4A6D56",
"L  c #78744D",
"P  c #484B68",
"I  c #4F586F",
"U  c #454B77",
"Y  c #4C5578",
"T  c #5A6575",
"R  c #566F72",
"E  c #6B7371",
"W  c #851810",
"Q  c #9D2C12",
"!  c #8E2E2A",
"~  c #B03528",
"^  c #954921",
"/  c #D04933",
"(  c #A2624E",
")  c #DD6955",
"_  c #078602",
"`  c #018B02",
"'  c #168604",
"]  c #148B04",
"[  c #1C8D05",
"{  c #099703",
"}  c #159704",
"|  c #1C9305",
" . c #1C9C06",
".. c #238D06",
"X. c #288D08",
"o. c #3A8D0F",
"O. c #229406",
"+. c #299707",
"@. c #239B06",
"#. c #259408",
"$. c #2C9409",
"%. c #259C08",
"&. c #2C9B09",
"*. c #33950B",
"=. c #3B960D",
"-. c #349C0B",
";. c #3B9C0D",
":. c #08A403",
">. c #1AA305",
",. c #25A407",
"<. c #2CA309",
"1. c #2CAB09",
"2. c #2EAF0A",
"3. c #34A30B",
"4. c #3CA30D",
"5. c #34AB0B",
"6. c #3BAB0D",
"7. c #34B20B",
"8. c #3BB30D",
"9. c #41960F",
"0. c #419D0F",
"q. c #468713",
"w. c #508618",
"e. c #439D10",
"r. c #489912",
"t. c #559717",
"y. c #42A40F",
"u. c #42AB0F",
"i. c #49AC0F",
"p. c #42B20E",
"a. c #44B70F",
"s. c #44A310",
"d. c #4BA512",
"f. c #45AB10",
"g. c #4BAB11",
"h. c #55A814",
"j. c #53AC14",
"k. c #45B310",
"l. c #4BB312",
"z. c #45BA10",
"x. c #4CBB11",
"c. c #53B314",
"v. c #5BB715",
"b. c #54BA14",
"n. c #62B818",
"m. c #58B531",
"M. c #4DC012",
"N. c #5BC316",
"B. c #63C717",
"V. c #6E9252",
"C. c #57B34C",
"Z. c #6DB354",
"A. c #5A876F",
"S. c #6D8E71",
"D. c #759577",
"F. c #74AD6F",
"G. c #72C352",
"H. c #74C66F",
"J. c #8A8A52",
"K. c #8D9173",
"L. c #A38D68",
"P. c #89B576",
"I. c #ABA573",
"U. c #E59473",
"Y. c #82C35C",
"T. c #90C978",
"R. c #051F84",
"E. c #1A2884",
"W. c #17318D",
"Q. c #222C86",
"!. c #293887",
"~. c #343D88",
"^. c #293896",
"/. c #363B94",
"(. c #303BA8",
"). c #394689",
"_. c #304593",
"`. c #374697",
"'. c #2C45AD",
"]. c #3947A6",
"[. c #3A51AA",
"{. c #394BB7",
"}. c #3C54B9",
"|. c #4A5987",
" X c #4A528F",
".X c #5A6787",
"XX c #566A8B",
"oX c #68708A",
"OX c #6C7695",
"+X c #434DA6",
"@X c #4553A8",
"#X c #4C54B1",
"$X c #4755B8",
"%X c #596AB4",
"&X c #6C78AC",
"*X c #384EC7",
"=X c #3C52C6",
"-X c #3C57D0",
";X c #4455C5",
":X c #505DC7",
">X c #4E64CD",
",X c #72908A",
"<X c #758896",
"1X c #7AA98B",
"2X c #7788AC",
"3X c #738BC6",
"4X c #979B87",
"5X c #8A9191",
"6X c #A7988A",
"7X c #89B788",
"8X c #93B28E",
"9X c #88A796",
"0X c #AFB194",
"qX c #8C93AC",
"wX c #96A8AD",
"eX c #A8A8A7",
"rX c #B2B6B8",
"tX c #C7B992",
"yX c #C4BEA5",
"uX c #95C786",
"iX c #9BD287",
"pX c #96C591",
"aX c #A9CF96",
"sX c #ACD698",
"dX c #ACD79F",
"fX c #B4D2AF",
"gX c #CEC594",
"hX c #E9DC9C",
"jX c #E9E39D",
"kX c #F0E09D",
"lX c #CBCBAF",
"zX c #D5D7B8",
"xX c #E9DBA7",
"cX c #F2DDA8",
"vX c #EBDDB1",
"bX c #C9E5B2",
"nX c #EAE2A4",
"mX c #E5E3A8",
"MX c #EBE2AB",
"NX c #F3E4A9",
"BX c #EAE3B8",
"VX c #F4E4B4",
"CX c #B0B5CE",
"ZX c #A3A9DF",
"AX c #B5C9CB",
"SX c #BBC2F5",
"DX c #CBCFCD",
"FX c #D8E8D2",
"GX c #E8E6C5",
"HX c #EFECD1",
"JX c #CFD4E9",
"KX c #DCE9F3",
"LX c #E9E8E6",
"PX c #E9F0F8",
"IX c #F7F9F9",
"UX c #FBFDFD",
/* pixels */
"v.b.[ 3.g.3.- s.3.3.f. .' 6.3.v.s.7XwX2X#X].(.(.(.].#X&XwX&.6.d.d.c.,.f.3.,.l.g.i.-.3.&.| $.;.c.d.y.y.X.$.@.1.&.#.-.;.y.6.[ $.-.",
"f.k.i.;.*.*.r.s.$.| -.&.X.<.5.F.R M 4 v !.].}.}.*X{.{.`.~.|.<X4.0.d.$.c.7.6.l.u.=.4.3.| y.y.;.c.4.3.s.t.=.#.;.&.-.$.] 5.<.$.#.| ",
"x.1.7.O.$.g.6.6.;.` &.g.y.F.y X > r z z j b W.'.'.'.=X}.;X{.^._.<X6.s.d.-.;.i.@.,.{ &.&.y.3.u.y.;.O.*.x.h.3.s.f.s.3.` $.@.*.[ #.",
"c.-.5.[ $.k.<.r.=.{ l.g.d.S.J t O 0 w w x j j R.W.^.'.{.*X;X;X$X).Y f.@.6.o.;.x.&.] X.*.g.` u.y.%.4.@.g.c.6.;.g.f.&.*.5.{ 4.i.*.",
";.g.c.-.u.$.*.c.;.` d.N.d.$.y.4.D.t o 8 c x v j b b E.W.{.{.].!.!.z 7 T oX,X9Xx.X.8.3.6.u.| 5.j.O.l.3.;.c.&.$.b.z.<.4.$.| -.g.;.",
"6.4.h.3.&.*.6.b.u.d.4.B.4.[ ;.;.d.#.D.1 , n g l j j b b v b j 6 5 6 x 6 w r n N T 7Xp.1.6.,.&.i.f.6.d.;.s.&...c.$...f.-.] 5.p.,.",
",.-.3.y.| 7.8.d.j.;.i.l.;.i.c.+.f.*.&.f.p : n d b g e k 6 : 6 j b v ^.]. X).F  X`.V |.1XO.[ *.-.f.<.f.t.t.3.-.d.3.3.g.6.| 2.6.&.",
"@.p.X.u.l.z.4.y.0.y.p.0.;.0.h.X.6.5.&.k.O.E o l f l , o > D F M z ).+X(.&XZXSX XF +X`.B 7X4.6.6.s.s.3.- s.6.-.l.8.2.4.g.l. .<.4.",
"=.6.6.8.N.g.d.e.&.j.g.5.g.y.d.8.-.$.5.u.*.*.S.O u 3 O qXKXKXT PXKX|.z ZXIXUXUXoXCXXX+X@XC j.u.x.v.d.*.&.u.s.$.y.y.X.} x.d.O.i.r.",
"h.3.>.O.f.d.y.u.,.g.d.>.d.-.u.7.3.;.4.*.d.f.4.D.O o qXUXUXUXCXPX3X).~. X.XZXPXUXIX X(.:X/.oX4.4.c.4.y.=.e.u.&.@.f.u.$.=.j.u.x.4.",
"7.9._ &.$.s.;.y.;.-.y.*.g.y.i.6.| ..y.d.z.a.X.7XP . wXUXUXPXZX X^.}.$X#X].^.@X>X_.[.=X=X$XV i.@.&.4.-.&.9.&.` { g.b.g.=.s.u.2.3.",
"6.4.c.6.y.s.&.s.-.7.8.6.x.x.u.0.X.o.y.g.F.E y u < < 0 XXoX XQ.].$XR.E.].+X#X`.(.'.}.*X*X:XV 9X` =.y.| | -.[ ' ] j.j.l.v.h.6...+.",
"5.-.j.l.;.i.k.*.' a.u.k.4.3.3.s.i.b.A.N k f c 5 2 5 k a ^.#X{.;X[.x u T T U  X@X}.*X-X*X}._.,X..;.;.=.3.6.&.O.6.d.g.i.y.y.4.<.$.",
";.s.d.g.;.*.y.;.-.;.;.y.4.$.&.3.E 0 > e B v v a 2 l g E.(.{.;X].F OXlXDXGXFXwXF ].=X*X*X>XV 7X=.;.0.u.y.$.O.| l.p.5.*.$.d.0.1.&.",
"s.f.g.f.3.i.-.y.9.*.0.-.<.<.S.+ o 8 1 , , 3 , : O w a s (.{.[.F eXHXGXVXVXVXHXrX).{.*X=X`. X9.9.l.c.5.-.5.8.&.4.y.;.3.,.h.h.3.-.",
"3.>.-.&.O.y.>.4.;.- ;.d.F.H   y U U Y .X.XY Y I O < 6 b v [._.&XlXtXgXgXI.L.I.IX&X(.-X$XC 7X .j.B.v.;. .,.1X5X9X9X7Xk.h.v.j.3.6.",
"g.f.| y.*.s.p.p.u.t.*.j.D.eXLXIXIXUXUXUXUXUXUXUXqX. 8 d g Q.~.OXlXI.J.J.J.gXHXDX`.'.:X!..X] 1.c.u.k.1X|._.!.~.!.).!. XaXc.3.$.6.",
"6.h.=.d.*.y.u.3.j.s.,.t.fXrX5XoXP P I T OXeXDXKXIXOXo , n 8 n N 5XyXzXzXVXHXeXI ).$X_.|.<._ <.f.D.G B ).`._._._.].@X`.V 9X*.` 4.",
"O.4.h.h.-.4.8.$.o.;.7XT u > o : 3 1 > O o O 8 r .XZXOXi . 1 8 8 O t J E T P Z C ).e I 4.i.-.;.T C ~.C 5 : > > 4 : x /.+XB <X*.e.",
"-.3.6.l.O.&.$...y.S.. > r l c a g d 9 l l d 8 d 2 : N oXOXM 1 7 n 8 + + 8 n B g F 1Xs.s.7.P.P C n : 8 |.2XfX7XF.,XS 2 !.#XB 1X;.",
"l.-.l.u.X.x.p.-.4.F.S.D : 6 x j b j 6 a f k f 9 k k 8 : M qXM o : , < < w 6 2 s 1X-.d.&.5.C  X3 < <XAXH.Y.G.v.X.Z.Z.A 4 (.#XZ pX",
"` 5.v.;.u.8.a.N.u.4.s.;.9XF a b j j j g x a a f k e 9 e 3 > > , 8 3 , : , c v v F G 4.6.G F : |.AXP.m.=.` ,.u...a.l.F.0 Q.#XB 2X",
"-.] d.$.3.8.8.h.6.4.i.%.` y.<X5 b h R.E.h h b g 5 e 6 e 9 , , 8 8 3 k l a v Q.E.}.[.`.!.).: ,XFXZ.' *.v.0.,.-.y.6.g.C.A s +X@X`.",
"v.` -.&.s.g.| 4.i.;.;. .1XR |.).].[.$X}.}.@X]./.V 4 > 4 : 3 9 9 8 8 g s v v v ^.=X-X$X].5 2XbXT.1.O.y.j.u.<.*.7.0.&.H.J 6 `.[.`.",
"u.*...-.N.s.g.s.d.3.,XF ).@X+X@X_.!.^.!.Q.Q.B v c e w o 4 4 4 6 e a j B B B v +X;X=X{.#Xn CXfXG.1.-.c.g.+.y.0.3.l.C.pXA 4 `.[._.",
"s.v.3.5.c.f.b.f.1XF ).[.@X/.!.v c k 2 d h h x 6 6 9 : > q 6 e 6 j a C 0 w N |.C /.#X$X$X`.N fXuXy.;.3.h.i.6...&.2.7XuX$ M `.[.].",
"s.l.g.x.;.-.f.XX~.@X[.^.E.g 3 O + + D U o , : 3 2 5 2 q j 4 q q q M # H 5XzXHXDXoXm +X$X:Xv 5XiXu.8.,.5.6.*.$.,.-.uXS.. : [.).3X",
";.h.e.d.$.F.F  X%X(.Q.B 2 = K Z.F.uXiXdX<X+ 1 7 : 2 6 j 5 6 4 e z 0 E rXzXmXmXBXLX5XM #X=X{.z dX*.6.} ,.3.-.-.| 7X7XR E <X|.B fX",
";.r.y.,.S.R Y F B n 8 u S.| +.c.9.j.g.5.bXU r d 5 2 k 9 q e f l X E tXgXxXNXxXmXxXHXOXC -X>X!.<X*.0._ ] -.d.$.S.K.iXsXsXsXsX8X8X",
"-.Z.V.P.P.dXDXAXqX< qXT.+.u.@.3.q.;.$.e.bXJXw r > 4 9 6 e 6 v 8 J tXyXNXcXcXnXNXnXmXFXY (.=X[.F u.i.s.*. .d.S.F.aXsXsXsXaXsXsX8X",
"7X6XLXPXUXIXUXUXUXAXDXF.-.$.*.H.T.P.uXaXPXUXqX. > w 4 a f 6 l y K.tXcXhXkXNXNXxXNXhXGXrX!.;X$X!.9X5.v.n.;.f.S.pXpXaXsXsXsXdXdX4X",
"5XFXPXIXIXIXIXUXUXUX4XpX4.=.V.T S t t t D oXAX# + 1 9 f s f r P tXgXNXNXkXhXxXMXxXnXmXHX X/.$X`.OX<.4.h.4.8.V.F.0XpXdXsXbXaXaX4X",
"5XLXDXHXIXIXUXIXIXUXCXDXA.= > > 4 z 0 8 8 > 0 0 > 4 f 5 a n + K.tXhXcXcXkXcXvXvXjXjXmXHXqXC ;X{.).*.4.-.6.s.$.S.D.8XaX0XfXeX9XX.",
"5XFXLXLXIXIXUXUXUXUX5XX < r u z j k f d v v e o q 6 a g d r $ K.0XhXnXcXxXcXvXMXxXcXxXGXfXi ;X;X~.8Xs.v.k.-.' -.#.8X8XeX0XiX6.*.",
"rX5XLXUXHXUXIXIXFXJX$ X + O O > w q c h h h 3 3 e q s g 9 u $ 6XgXnXMXMXmXMXMXvXcXcXcXVXzXS $X;X~.9Xd.v.g.;.3.j.x.p.3.,.O.g.;.0.",
"zXrX4XrXIXLXIXIXCXeXCXCXCXqXqXoXD i 8 2 d B 7 1 e a g d s n $ 4XgXjXxXmXmXmXmXnXcXcXcXVXzXH ].;X~.qX6.g.s.$.<.h.b.1.u.#.$.s.0.;.",
"m.iXzXrXrXeXeXeXDXUXbXG.C.G.G.F.KXKXAXqXP < X X w 6 x s g n # 4XgXmXmXnXjXjXjXmXVXxXvXGXfXA }.;X~.9X6.u.n.g.#.-.&.` 8.y.p.5.6.s.",
"x.<.@.4.Z.iXiXiXT.Y.g.1.[ ;.i.-.m.G.G.uXT.P.R X 0 4 s s v n # 5XgXnXnXnXnXjXjXjXMXvXxXHXwXD }.}.C 9Xj.u.c.d.;.6.[ | d.h.3.{ $.8.",
"3.u.3.s.r.6.<.6.f.s.c.,.%.=.e.<.| -.z. .-.d.y.# 0 q a g g B 1 T lXxXMXMXnXnXjXjXnXmXxXHX.X/.=X}.~.*.d.} c.i.*.3.X.4.j.j.$.| $.g.",
"=.-.f.-.4.5.$.&.3.d.g.<.| -.4.3.4.=.=.[ ;.<.S.o 1 k a g 5 B n p 0XxXMXnXnXnXjXmXnXxXHXrXV {.{.]..Xp.<.] 6.u.| 3.p.&.;.5.-.$.3.g.",
"3. .] *.,.@.3.$.$.X.;.$.] p.u.<.k.;.d.s.h.p + : w 4 a a a b !.7 E vXxXhXkXhXnXNXxXGXGXH  X(.].!.P.u.u.-.{ :.- 3.b.1.[ *.-.z.#.;.",
"z.3._ 5.$.] 4.p.#.;.$.#...-.a.*.;.-.e.P.0 < < u > e k 5 9 a h V @ 6XBXMXcXkXxXvXGXDXJ N ~.].~..Xs.=.d.$.@.`  .f.l.5.c.&.5.4.-.x.",
"v.f.} 2.<.-.2.@.3.g.-.6.4.$.1.3.4.&.S.  . + + + o . w 1 w w x v V < 5XlXxXmXvXzXeXi z !._.).P 4.f.d.d.#.-.;.h.y.$.a.v.*.<.e.;.b.",
"h.q...y.p.6.&.3.g.| <.g.g.>.3.&.h.o.S.P.F.y.=.F.F.R o r 0 4 6 g E.V 0 H 5XK.E J 0 k !.!.v G f.;.l.$.*.3.u.y.4.d.=.f.;.-.#.-.-.d.",
"y.y.0.d.&.0.X.u.y.[ 3.;.e.s.1.&.3.w.-.z.X.6.;.e.D.A : , O : 3 g a c z z q k n d B V v 4 R &.6.#.*.;.2.x.g.;.} 4.l.6.$.&.-.r.e.g.",
"6.6.6.&.[ u.#.*.u.y.q.<.] g.<.#.<.=.f.6.h.g.6.S . O i > p P < o > 1 4 M v v B d 9 l k : &.6.;.$.;.s.6.3.g.c.<.` 6. .@.} 6.t.q.f.",
"4.c.6.&...$.;.+.d.;...} 5.-.=.p.1.e.<.4.-.s.0 < u u p O.3.>.i.D.R p y 0 0 i p T D.l.R o A.O.0.i.c.5.3.] l.d.;.5.&.] ]  .x.%.s.h.",
"1.b.g...3.y.y.;.&.,.$.&.6.c.g.s.] ;.4.;.4.X < n r E 5.-.3.7.d.g.4.0.i.;.1.4.9._ =.*.R > E -.e.$.j.-.6.M.g.e.-.g.-.*._ &.x.6.3.4.",
"&.4.y.=.8.s.6.,.| >.5.b.%.d.*.>.1.;.y.&.t > z 7 D.s.f.6.j.4.i.6.g.g.l.6.p.1.5.o.4.4.E o P 4.*.$.*.4.*.h.x.f...;.6.e.$.=.4.c.$.-.",
"y.y.8.g.f.<.q.@.1. .*.j.c.c.&.} >.5.5.J : z q S.%.&.4.&.c.0.y.8.i.+.1.&.;.&.O.c.j.6.D.O 0 1X;.j.3.} $.y.m.-.$.3.4.=.=.-.-.v.-.5.",
"n.0.&.z.7.4.t.$.@.] s.d.c.v.>.k.*.` 0.o w u J j.| 3.f.[ 4.y.u.5.>.&.' @.$.9.X.u.s.e.*.+ u U x.5.l.[ 6.k.f.#.s.k.f.-.4.5.k.v.f.8.",
"x.6.0.j.@.4.c.3.] f.f.6.;.g.| s.e.*.p > r 0 4.;.f.,.6.O.O.O.$.X.1.:.*.9.-.d.y.@.*.;.1.y 8 m oX=.u.6.4.y.6.<.&.-.f.{ z.j.4.6.3.s.",
"g.$.*.h.X.g.u.e.*.B.g.&.3.;.*.*.d.v.o w z Y f.#.s.j.:.&...,.u.&.6.| [ 6.=.*.6.| y.4.5.A.> n C <X;.=.%.g.m.f.X.#.,.>.8.j.s.| [ s.",
"y.;.6.s.&.x.s.0.f.k.j.4.1.1.s.g.5.A.o r z E g.3.-.0.[ &.;.&.x.4.4.#.+. .] +.,.&.*.-.6.O.O r ~.V U 9X8X8X6X0X6X) K.( D.1.5.c.6.f.",
"3.3.c.x.p.3.-.3.,.$.8.%.O.c.b.g.N.K > z z A.e.4...l.3.&.3.X.&.y.y.O.a.#.} x.&.-.$.0.3.O.V.o n /./.~._.m ! ) tX) ( ! ( :.&.j.M.f.",
"*.4.e.s.y.;.$.y.-.' { | 3.v.c.o.g.A 5 b W.,X-.d.<.g.4.@.>.<.y.u.g.[ ;.u.<.v.6.&.i.9.' -.l.K : c /.].{.Z ! / / ~ W % 6...[ g.c.-.",
"e.c.d.d.f.d.4.$.l.=.o.X.4.=.&.d.t.$ 7 B /.XXe.=.3.=.$.$.} &.;.6.6.| f.j.$.j.*.O.+.y.$.$.b.f.A., 2 j _.m W Q W % * J.q.q.<.<.i.=.",
"3.6.6.g.g.l.s.[ x.v.s.=.6.&.%.x.9.$ < n  Xm D.L ;.y.0.;...&.*.6.y.&.y.y.-.c.&.3.X.c.l.3.d.=.x.>.,XD z @ & * ( I.k.p.w.t.z.i.4.c.",
"&.=.d.=.s.B.k.$.=.f.,.[ -.3.s.| i.; @ @ & & & ; L 3.h.s.;.;.;.4.g.-.-.y.1.6.u.*.#.4.6.f.s.s.n.4.6.k.%.uX7XO.p.N.3.d.6.3.l.i.i.0.",
"%.;.6.&.<.g.f.| s.3.] | &.[ J.L ; % & & ! ! ) tXV.+.h.y.4.- =.;.;.l.a.b.1.u.3.X.g.1.#.e.g.6.h.g.<.d.$.k.6.O.6.-.4.v.s.$.d.O.y.0.",
"8.j.>.-.#.$.*.=.x.4.[ k.V.& & W Q Q Q / ^ ) gXL.V.<.-.3.y.- ;.z.8.;.y.a.c.k.&.O.l.6.} $.4.x.3.g.5.-.y.%.u.#.3.$.y.N.y.-.0.*.;.u.",
"8.c.6.` -.6.| g.s.#.=.6.; & Q ~ / ) / / U.gXL.L ..6.-.[ b.<.%.&.l.0...*.j.d.&.| ;.' #.&.;.g.6.4.u.,.u.s.j.0.[ &.d.d.u.} c.u.&.7.",
"4.s.c.3.%.6.5.l.=.*.6.} - % ^ ! ^ U.) / ( ( L u.d.u.&.| i.0.&.#.g.b.1.-.| ;.O.@.$.&.g.6.6.;.-.g.k.%.&.c.u.0.u.5.c.y.O.,.y.;.@.,.",
"j.4.6.k.4.*.*.g.$.g.c.O.{ V.^ ^ ^ Q Q / ( K.y.c.7.i.6.@.#.d.u.j.b.c.3.4.' *.-.4.g.6.f.-.&.*.O.s.e.;.O.e.y.<.8.1.-.i...$.,.+.$.X."
};
