/* XPM */
static char *_082d42e6ef44fc5ede9264d9e998186dxJbeDDsTKdfrDdK[] = {
/* columns rows colors chars-per-pixel */
"64 64 223 2 ",
"   c #080504",
".  c #170F0B",
"X  c #1C130D",
"o  c #332619",
"O  c #3C271B",
"+  c #3E281C",
"@  c #442C1C",
"#  c #492F1C",
"$  c #47311C",
"%  c #4C321C",
"&  c #53351D",
"*  c #543A1D",
"=  c #5D3B1C",
"-  c #603D1D",
";  c #4A3322",
":  c #543A22",
">  c #593D23",
",  c #563E29",
"<  c #623F23",
"1  c #395B12",
"2  c #197B07",
"3  c #387110",
"4  c #484719",
"5  c #55461B",
"6  c #5C431C",
"7  c #5C4B1B",
"8  c #4A5A17",
"9  c #535318",
"0  c #57581A",
"q  c #6A411F",
"w  c #624D1C",
"e  c #68531B",
"r  c #6D5A1B",
"t  c #705D1B",
"y  c #466615",
"u  c #5B671A",
"i  c #457213",
"p  c #4A7914",
"a  c #597718",
"s  c #75621B",
"d  c #7D6A1B",
"f  c #5D4228",
"g  c #644421",
"h  c #6B4521",
"j  c #664A26",
"k  c #6C4B23",
"l  c #684F2B",
"z  c #724D24",
"x  c #774C29",
"c  c #745325",
"v  c #7B5A27",
"b  c #75532C",
"n  c #7E5D28",
"m  c #6A5434",
"M  c #7A5C32",
"N  c #765A39",
"B  c #766A33",
"V  c #7F6940",
"C  c #86731B",
"Z  c #88761A",
"A  c #835931",
"S  c #8A6935",
"D  c #876639",
"F  c #8B6B3C",
"G  c #8F6F3C",
"H  c #856C42",
"J  c #936E41",
"K  c #8C7743",
"L  c #947345",
"P  c #977548",
"I  c #9E7B4B",
"U  c #9D7E51",
"Y  c #A37D4D",
"T  c #068602",
"R  c #018C02",
"E  c #0C8C03",
"W  c #158504",
"Q  c #138B04",
"!  c #1C8C05",
"~  c #079503",
"^  c #149704",
"/  c #1C9206",
"(  c #1C9C06",
")  c #238D07",
"_  c #268D08",
"`  c #298A08",
"'  c #36880E",
"]  c #229306",
"[  c #2A9407",
"{  c #239B07",
"}  c #299C07",
"|  c #249308",
" . c #2C9409",
".. c #259C08",
"X. c #2C9B09",
"o. c #33950B",
"O. c #3B960D",
"+. c #339C0B",
"@. c #3B9C0D",
"#. c #3C9416",
"$. c #01A002",
"%. c #14A304",
"&. c #1BA406",
"*. c #22A307",
"=. c #27A508",
"-. c #2CA309",
";. c #2CAC09",
":. c #34A30B",
">. c #3CA30D",
",. c #35AB0C",
"<. c #3CAB0D",
"1. c #34B10B",
"2. c #3CB30D",
"3. c #42950F",
"4. c #419D0F",
"5. c #468813",
"6. c #538716",
"7. c #449412",
"8. c #449D10",
"9. c #4B9C13",
"0. c #4A9519",
"q. c #549918",
"w. c #6D8F19",
"e. c #42A40F",
"r. c #42AB0F",
"t. c #4AA90F",
"y. c #42B20E",
"u. c #40B90F",
"i. c #44A310",
"p. c #4AA412",
"a. c #45AC10",
"s. c #4BAB11",
"d. c #4DA718",
"f. c #52A514",
"g. c #53AC14",
"h. c #5EA81A",
"j. c #45B210",
"k. c #4CB312",
"l. c #45B910",
"z. c #4BBA11",
"x. c #53B314",
"c. c #5AB315",
"v. c #54BA14",
"b. c #5BBB16",
"n. c #65A913",
"m. c #78AB13",
"M. c #61B918",
"N. c #538822",
"B. c #589924",
"V. c #6C8C2E",
"C. c #67972B",
"Z. c #5BA425",
"A. c #70AD30",
"S. c #4EC113",
"D. c #5CC116",
"F. c #58C816",
"G. c #63C917",
"H. c #70C61E",
"J. c #94831A",
"K. c #9D8C1A",
"L. c #A08F1A",
"P. c #A4931A",
"I. c #AB9A19",
"U. c #8CAC15",
"Y. c #96B614",
"T. c #B3A219",
"R. c #BDAD19",
"E. c #AFB217",
"W. c #83973C",
"Q. c #81AD3C",
"!. c #C3BB17",
"~. c #CCBC17",
"^. c #C3B419",
"/. c #C7BA18",
"(. c #CCBD18",
"). c #98C139",
"_. c #CEC01A",
"`. c #D1C325",
"'. c #D3C629",
"]. c #D5C92E",
"[. c #D8CC36",
"{. c #888643",
"}. c #99854B",
"|. c #92964A",
" X c #96954A",
".X c #9B8652",
"XX c #A3814F",
"oX c #A88654",
"OX c #A38E52",
"+X c #AE8D59",
"@X c #B08F5A",
"#X c #A89556",
"$X c #B4925D",
"%X c #B09E5B",
"&X c #B4A35F",
"*X c #B7A863",
"=X c #C1B369",
"-X c #C7BB6E",
";X c #9DC241",
":X c #DDD343",
">X c #DFD649",
",X c #CCD95E",
"<X c #E1D84C",
"1X c #E5DC54",
"2X c #E6DE59",
"3X c #E8E15E",
"4X c #CEC373",
"5X c #D4CA77",
"6X c #DAD27C",
"7X c #EAE363",
"8X c #EDE76A",
"9X c #EEE86C",
"0X c #EBE972",
"qX c #F1EC75",
"wX c #F3EE7B",
"eX c #F5F17D",
"rX c #E3DC82",
"tX c #EBE686",
"yX c #F2EE83",
"uX c #F1ED8A",
"iX c #F6F385",
"pX c #F6F38B",
"aX c #F8F588",
/* pixels */
"b.v./ :.k.+.i i.<.:.a.] ! <.:.x.p.O.k.a.a.{ <.k.:.<.[ :.>.+.>.d.8.v.*.s.:.=.x.a.k.o.:.} /  .@.x.p.e.>.`  .( ,.} [  .@.8.<.! [ :.",
"i.j.t.@.o.o.8.i. ./ +.X.) -.,.@.8.=.-.:.d.:.| @.o.+.@.[ j.<.o.>.8.d. .x.2.,.k.r.O.>.:.] e.p.@.x.@.:.i.q.@.[ @.X.+. .Q ,.-. .[ ! ",
"z.;.1.] ` s.2.a.@.R +.a.>.>.,./ ^ &.| -.i.@.] O...d.s.@.+.p.:.] X.>.4.p.+.@.t.{ *.~ X.X.i.+.r.e.@.| +.z.f.+.i.a.i.:.T  .{ o.! ] ",
"x.+.1.! } j.-.7.O.$.s.s.s.>.<.] -.Q  . .p.>.( ,.2.+.9.0.0.h.B.#.q.B.Z.O.d.7.8.k.X.E ` X.a.R r.a.X.:.{ s.v.<.@.t.j.} +.,.E >.a.+.",
"@.s.x.+.r. .X.x.@.R p.D.p. .<.>.8.~ >.| 0.B.N.V.{.{.K K V V V m m V H V K {.{.|.V.B.B.d.a.^ ,.g.] k.:.O.x.-.o.v.l.-.:.} ( +.f.@.",
"<.>.f.:.X. .<.c.a.i.>.G.>.! @.@.d.0.W.|.}.K N > f ; ; @ + + O O + + + O @ ; ; f f N P }.|.C.0.s.j.<.f.>.8.} ! x. .) s.+.Q ;.j.=.",
"-.+.+.e.] 1.2.p.f.@.k.k.>.d.h.V. X+XP m : + O O + @ $ ; : : : * * : * : % $ @ + + + $ , N U oX|.C.>.a.0.q.:.+.s.:.:.d.>./ ;.<.} ",
"{ y.[ r.z.l.@.e.8.<.<.8.8.C.#X$XU f + + @ ; 6 j l e k v v v n c c v n v v k k l g : ; + o ; m .X$X XB.p d.>.+.k.1.1.>.k.k.( :.:.",
"@.>.<.1.F.a.p.8.} g.a.>.V.P P N @ + % * c v n n A z t A A A A z c n n n A c e A A n v k & @ + : D P K N.r.e. .t.e.` ^ z.t.| t.9.",
"f.,.( { i.p.e.a.=.d.f.B.@X@XU ; # j k c n n n n A q t A t t C z k n n n n v h v d v n n c h f @ f +X+XOXq.e.-...a.y.[ O.p.a.S.>.",
"2.O.W } o.i.@.i.@.+.7.L $X$XU : c v k v n n A n t z A t A A A r c n n n n n e c n n n n n e c j f $X$X$XC. .R ~ s.v.s.3.p.<.;.:.",
"<.>.k.<.e.e.} p.+.1.p F $X@X+XD v k c b k j w j - - r A c C A r e n v n n n z k n n n n n c q v H $X$X#XB ) W E g.f.v.x.s.e.! X.",
",.+.x.s.O.g.k.o.Q a.7 z oX$X$X+XD k g $ @ + O O O @ @ * t A A z k v n n n v v q v n v A d v b J $X$X$XP j ' / >.p.s.a.i.i.e.-.[ ",
"@.i.d.s.:.o.>.@.o.5.6 - b Y $X$X@XL > @ X         X o @ e A t z e A d A v A n q c n v v v S XX$X$X$XP k - 3 / k.y.,.o.[ p.4.;.} ",
"e.a.s.r.:.r.+.i.7.i - - - z J Y P J H U m o .       . % r A A z h A v v n C v z k S G XXY G J I oXA h = - 0 } ,.i.@.-.=.n.h.:.+.",
"-.*.o.X.] e.&.>.:.9 - - - - < : l U $X$X$X$X.XH m l N S S S S z c S S S S G P Y XX+X$X$X$X+XJ > < - - - - 7 ' ,.i.[ y.x.g.g.>.,.",
"s.s./ e.o.i.2.y.e.0 - - - - = @ > h A F Y +X@X$X$X$X$X$X$X$X@XA S @X$X$X$X$X$X$X$X@XY Y F x q # & - - - - - 6.e. .! 9.c.z.>.[ ,.",
"r.s.O.p.o.e.r.:.9.7 - - - - = @ - - - - q x A F J Y oXoXoX+XY A S @X@XY Y Y Y J D A x q - - - & & - - - - - p i.<.s.o.+.a.+.R e.",
"] :.g.g.:.>.2. .5.5 6 = - - = # - - - - - - - - - q q z A x A & q A A < A - < - - - - - - - - & # - - - - = 8 s.,.k.r.{ p.p.o.e.",
"@.:.i.k.] X. .) 5.6 - q - - & # - - - - - - - - - - - - - - = # & = - - - - - - - - - - - - - & # = - - 6 = 7 o.[ X.p.-.,.k.{ @.",
"v.o.k.r._ z.r.:.Q.N = = - - % ; - - - - - - - - - - - - - - - # & = - - - - - - - - - - - - - = @ = = - = - F Z.e.[ @.+./ r.E Q ",
"R ,.b.@.r.2.j.H.0XrX.Xk - - # * - - - - - - - - - - - - - - - % & - - - - - - - - - - - - - - = @ = = = M *XtX,Xg.t.{ ( o.<.O.| ",
"o.Q d.| :.2.y.m.`.3XpX6X}.k @ & - - - - - - - - - - - - - - - # & - - - - - - - - - - - - - - - @ = M %XtXiX>X`.m.s.&.;.,.r.:.x.",
"b.R O.} a.s./ m.~.(.[.8XpXrXOXM - - - - - - - - - - - - - - - # & - - - - - - - - - - - - = = j N *XtXaX1X'./.(.U.o.:.v.:.+.,.e.",
"e.o.] +.D.>.s.U./._.~./.[.7XiXtX-XoXD h - - = - - - - - - - - # & - - - - - - - - - - - k D %X5XpXeX1X'.(.(.(./.Y.E  .f.e.+.e.4.",
"e.c.:.,.g.a.b.m./._.(._.~.(.'.<XqXaXpX6X=XOXF b k g - - = = = # # = - - = - - q b H OX=XrXpXiX8X:X`.(.(.(.(.(.(.Y.! [ k.e.>.] ] ",
"4.k.a.v.@.@.p.n.!.(.(.(.(.(.(.(.(.'.<X2XeXpXpXtXrX5X-X*X%X#XOX}.Y oXoX%X*X=X4X6XuXpXaXwX3X:X'.(.~./.(.(.(.(./.(.U.} [ o.t.>.1.;.",
"@.g.8.p.o.!  .g.E.(.(.(.(.(.(.(.(.~.~.~.(.'.[.<X2X7XqXwXiXiXaXpXyXiXiXiXeXwX9X3X<X[.'.(./.(.~.~.(.(.(.(.(.(./.E.t.o.z.>.>.D.t.>.",
">.9.e.=.Q / @.+.6.K./.(.(.(.(.(.(.(.(.(.(.~.~.~.~.(.(.(.`.`.`.'.`.'.`.`._._.(.(.(.(.~.(.~.(.(.(.(.(.(.(./.T.d y +.<.S.x.t.e.p.@.",
"@.{ y.+.X. .k.<.y # r P./.(.(.(.(.(.(.(.(.(.(.(.(.(.(.(.(.(.~.~.(.~.~.(.(.(.(.(.(.(.(.(.(.(.(.(.(.(.(.T.d * $ 1 o.,.j.p.r.a.o.[ ",
"@.X.@.s.s.| :.>.i & @ # w Z T.^.(.(.(.(.(.(.(.(.(.(.~.~.(.(.(.(.(.(.(.(.(.(.(.(.(.(.(.(.(.(.(.(.^.L.t % @ & = i (  .a.k.c.>.} ..",
":.k.x.r.e.{ ( O.a - - & # @ % e Z I.^.(.(.(.(.(.(.(.(.(.(.(.(.(.(.(.~.(.(.(.(.(.(.(.(.(./.R.K.d 5 @ @ & * q = 1 o.o.j.v.M.+.@.} ",
"<.>.f.@.,.o.^ %.a - - - = & @ @ @ # 5 t Z P.T.R././.(._.(.(.(.(.(._._._._.~.~./.R.T.K.C e & @ @ @ # - - - - - 1 3.>.a.o.g.p.o.| ",
"O.s.a.p.X.X.R %.p - - - - = @ = = & # @ O $ % * w t d C Z J.K.K.K.K.J.Z Z C t w 5 % @ @ @ % : = % & - - - - - y ( ,.<.-.>.c.<.o.",
"4.@.j.:.>.i.E +.p - - - - = @ = - - - = = * & % # @ + + @ @ @ @ @ @ @ @ @ @ @ @ % & * = - - - - # & - - - - = a z.j.:...( s.:.4.",
"p.~ :.X.:.>. . .6.- - = - = @ = - - - - - - - - - - = = = = = # # = & = & = - - - - - - - - - - # = - - - - = a z.;.r.[  .p.4.@.",
"s.(  .) } -.8.2.6.6 - - - = # = - - - - - - - - - - - - - - - % & - - - - - - - - - - - - - = = @ = - - - - - p X.R y.e.r.<.>.r.",
"2.-.{ 8./ ,.<.v.7.q - - - - # & - - - - - - - - - - - - - - - % & - - - - - - - - - - - - - - = @ = - - - - - 5.! ] i.f.:.~ X.2.",
":.e.>.e.9.>.:.<.7.5 - - - - % & - - - - - - - - - - - - - - - # & - - - - - - - = - - - - - - = @ = = - - = = 7.[ >.s.x. ./ [ s.",
"@.+.j.+.>.,. .:.A.I g = = - % % - - - - - - - - = - - - - - - % & - - - - - - - - - - - - - = = # = - - = k }.Z.y. .O.,.+. .:.p.",
":.( Q o.=.{ :. .;XwX4XK g = & # - - - - - - - - - - - - - - - # & - - - - - - - - - - - - - - & % = = j {.6XeX).v.=.! o.+.j.| @.",
"z.:.T ;.[ ! :.y.m.].7XuX4X}.j @ = - - - - - - - - - - - - - - % & - - - - - - - - - > - - - - % % k I 5XyX3X'.U.k.1.x.X.,.<.:.k.",
"x.k.Q 1.+.+.;...m._._.].7XiX6X%XD j - = - - - - - - = - - - - # & - - - - - - - - - - - - - < l .X6XwX2X'.(.~.U.o.2.b.o.-.8.@.b.",
"f.5.] e.2.<.-.+.n.!.~.~.(.'.1XwXtX6X&XK b - - = = = - = - - - # & - - - - - - - = - - h M OX-XtX9X<X`.(.(.(.~.n.O.a.4.+.] +.+.p.",
"r.s.O.t.+.4.` r.t.E.~.~.(.~.(._.[.2XqXiXrX4X*X}.F b c j - < - ; & - - q q j l M J OX=X6XwX0X1X]._.~.~.~.(.(.E.>.k.<. ...+.9.@.s.",
"<.,.>.+./ r.[ X.r.U._.~.(.(.(.(.(.(.(.'.<X3XqXeXpXtXrX6X4X-X=X*X*X*X=X-X4X6X0XtXwXqX3X<X].(.~.(._.~._./.(./.n.R <.( { / <.q.p a.",
":.c.1.X.) ` o.o.p.9.P.(.(.(.(.(.(.(.(.~.~.(.(.`.'.[.<X1X3X7X8X8X7X8X8X3X1X<X[.[.`._.(./.(.(.(.(.~.(._.~.I.w.@.<.X.E Q ( z.*.a.f.",
"-.v.g._ -.r.e.@.[ =.y s P./.(.(.(.(.(.~.(.(.(.(.~.~.~.~.(.(.(.(.(.(.(.~.(.(._.(./.(.(.(.(.(.(.(.(.^.K.r $ i +.f.:.o.T -.k.<.>.>.",
"X.>.e.@.<.r.>.*.( &.p % % 7 Z I.R.(._._.(.(.(.(.(.(.(.(.(.(.(.(.(.(./.~.(.(./.(.(.(.~.~.(.~.^.I.C 6 $ # 5 9._ +.a.i.X.O.>.x.X.X.",
"e.e.2.s.y.-.5.X.-.( ' 7 = & % % 6 s J.I.^.~.(.(.(.(.(.(.(.(.(.(.(.(.(.~.(._._.(._.(.^.R.L.C w % @ & = - a X. .+.@.@.O.@.+.c.:.:.",
"G.i.} z.1.@.q. .{ Q i.u - 6 = = & + # % 5 e C J.I.T.^.^.^./.(./.(.~.(.~.^.R.T.I.J.d w * # @ # = - - - 7 9. .>.j.a.X.i.:.j.v.a.j.",
"k.>.>.f.{ >.v.+./ i.a.#.6 = = q = @ = = & & # # $ % * 6 w e r r r r e w 6 5 % % # % & = = # * - - - - p <.=.X.:.a.~ j.k.e.a.-.i.",
"p. .o.g._ s.a.i.o.G.s.o.0 - - - - # & - - - - = = = = & & & & @ # & & & & = = = - - - - = @ = - - - 5 f.M.r. .*.=.;.r.x.e.] ! i.",
">.@.r.a.X.k.i.@.y.r.x.>.y - - - - % % - - - - - - = - - - = = % & - - - - - = - - - - - & % = = - - 8 p.p.@.[ 1.,.[ Q -.,.s.<.a.",
"+.:.k.j.y.:.@.:... .2...3 w - - - = @ = - - - - - - - - - - - % & - - - - - - = - - - - # & = = - - i [ ) =.{ { +.X.| ! X.x.S.a.",
"+.i.8.p.e.@.[ e.@.Q ~ / :.u - - - = @ = - - - - - - - - - - - % & - - - - - - - - - - = @ = 6 q - 9 ` | ( :.,.:.o.s.>.) ) d.z.+.",
"8.k.i.p.r.p.>.} k.O.'  .:.7.8 - - - & # - - - - - - - - = = = % & - - - - - - - - - - & % = = = 9 2 o.>.| _ X.:.p.@.5.6.=.:.p.@.",
"<.<.<.p.s.k.i.! k.b.p.o.<. .o.a w - & # = - - - - - - - 6 q = % & - - - - - - - - - - % & - q y ' @.] 5.} )  .j.s.a.6.9.l.a.>.k.",
"X.o.p.@.i.G.a. .O.a.=./ +.X.>./ 7.y 7 $ & > - - - - - - = - q $ & - - - - - - - - - * @ * 0 w.>.j.k.-.g.} ..j.D.:.p.<.:.x.r.p.>.",
"X.@.a.} -.f.i./ i.:.Q ! o.! @.o.>.,.` y 9 7 - - - - - - - - 6 % & - - - - - - - - 6 4 8 q.>.d.a.-.d. .j.<.{ <.:.@.c.i. .p.{ e.3.",
"2.s.&.X.[ [ o.@.k.>.! y.y.k.i.+.:...T X.+.' 6.i y 9 7 7 - = q % * = = w w 0 9 y 6.7.!  .>.z.,.a.>.:.i.{ r.[ :. .e.D.e.+.4. .O.a.",
"2.c.2.T @.,.( p.i.[ O.,.-.v.:.i 0.,.W | } R o.e.) <.o.` q.' ` 3 7.5.3 ' q.9. .( @.Q ] X.>.s.>.>.r.*.a.i.x.4.!  .p.i.r.^ v.e.-.2.",
">.i.c.X.{ <.,.k.@.o.:.( ! a.,.' :.2.o.s.:.X.o.t.p.r. .Q a.4.X.| s.v.:.+./ >.) { [ X.s.>.<.@.+.d.j.*.} x.<.4.r.:.v.e.] -.e.@.{ *.",
"k.@.<.l.>.o.o.s. .s.v.] R  .>.u.*.r.c.a.r.| e.v.,.r.<.=.) t.e.g.v.v.;.>.W o.o.>.s.<.r.@.} o.] p.8.O.] 8.>.:.2.;.+.s.)  .*.}  .` "
};
